<svg width="28" height="28" viewBox="0 0 28 28" fill="none" xmlns="http://www.w3.org/2000/svg">
<path d="M6.41648 12.86C4.21628 12.86 2.42648 11.0702 2.42648 8.87C2.42648 6.6698 4.21628 4.88 6.41648 4.88C8.61668 4.88 10.4065 6.6698 10.4065 8.87C10.4065 11.0702 8.61668 12.86 6.41648 12.86ZM20.6665 14C16.8885 14 13.8265 17.062 13.8265 20.84C13.8265 24.618 16.8885 27.68 20.6665 27.68C24.4444 27.68 27.5065 24.618 27.5065 20.84C27.5065 17.062 24.4444 14 20.6665 14ZM21.3721 23.592C20.9412 24.0229 20.3689 24.26 19.7602 24.26H19.7579C19.1491 24.26 18.5769 24.0217 18.1471 23.5908L15.8534 21.2971L17.4654 19.6852L19.7602 21.98L23.8813 17.8589L25.4932 19.4709L21.3721 23.592ZM17.8165 8.3C15.6163 8.3 13.8265 6.5102 13.8265 4.31C13.8265 2.1098 15.6163 0.32 17.8165 0.32C20.0167 0.32 21.8065 2.1098 21.8065 4.31C21.8065 6.5102 20.0167 8.3 17.8165 8.3ZM14.1411 14.4697C15.7975 12.7734 18.1083 11.72 20.6665 11.72C21.8623 11.72 23.0046 11.9503 24.0511 12.3687C23.8117 10.7145 22.3856 9.44 20.6665 9.44H14.9665C13.2987 9.44 11.9067 10.6404 11.6069 12.2227C12.6614 12.6993 13.5449 13.4881 14.1411 14.4697ZM9.26648 14H3.56648C1.68092 14 0.146484 15.5344 0.146484 17.42V20.84H11.5465C11.5465 19.3113 11.9227 17.8714 12.5873 16.606C12.2214 15.1126 10.8716 14 9.26648 14Z" fill="url(#paint0_linear_1_7155)" fill-opacity="0.6"/>
<defs>
<linearGradient id="paint0_linear_1_7155" x1="13.8265" y1="0.32" x2="13.8265" y2="27.68" gradientUnits="userSpaceOnUse">
<stop stop-color="#660224"/>
<stop offset="1" stop-color="#8E1636"/>
</linearGradient>
</defs>
</svg>
