<svg width="28" height="27" viewBox="0 0 28 27" fill="none" xmlns="http://www.w3.org/2000/svg">
<g clip-path="url(#clip0_265_312)">
<path fill-rule="evenodd" clip-rule="evenodd" d="M14.0914 26.6525C21.404 26.6525 27.3322 20.7244 27.3322 13.4117C27.3322 6.09901 21.404 0.170898 14.0914 0.170898C6.7787 0.170898 0.850586 6.09901 0.850586 13.4117C0.850586 20.7244 6.7787 26.6525 14.0914 26.6525ZM15 7.05997C14.3336 7.07854 13.6306 7.23893 13.134 7.71081C12.7238 8.09018 12.5172 8.64235 12.4707 9.19431C12.4566 9.58909 12.4586 9.98491 12.4606 10.3806C12.4622 10.6773 12.4637 10.9739 12.4584 11.27C12.276 11.2713 12.093 11.271 11.91 11.2706C11.6659 11.2701 11.4216 11.2696 11.1784 11.2731C11.1784 11.5094 11.1787 11.7459 11.1791 11.9827C11.1798 12.457 11.1805 12.9322 11.1784 13.4074C11.4216 13.411 11.6659 13.4105 11.91 13.41C12.093 13.4096 12.276 13.4092 12.4584 13.4105C12.4625 14.3523 12.4617 15.2941 12.461 16.2358C12.46 17.413 12.4591 18.5901 12.4677 19.7673C12.9682 19.7637 13.4677 19.7642 13.9674 19.7647C14.3421 19.7651 14.717 19.7655 15.0924 19.7642C15.0955 18.7047 15.0948 17.646 15.094 16.5874C15.0932 15.5286 15.0924 14.47 15.0955 13.4105C15.348 13.4092 15.6004 13.4096 15.8529 13.41C16.1896 13.4105 16.5262 13.411 16.8628 13.4074C16.9677 12.698 17.0571 11.9823 17.1064 11.2638C16.7734 11.2623 16.4403 11.2623 16.1071 11.2623C15.7741 11.2623 15.4409 11.2623 15.1079 11.2607C15.1079 11.1365 15.1077 11.0124 15.1075 10.8882C15.1069 10.5158 15.1064 10.1435 15.111 9.77102C15.1634 9.48412 15.4594 9.26512 15.7463 9.28368H17.1095C17.1126 8.54037 17.1126 7.80018 17.1095 7.05687C16.9338 7.05687 16.758 7.05669 16.5822 7.0565C16.0548 7.05592 15.5274 7.05534 15 7.05997Z" fill="white"/>
</g>
<defs>
<clipPath id="clip0_265_312">
<rect width="26.4816" height="26.4816" fill="white" transform="translate(0.850586 0.170898)"/>
</clipPath>
</defs>
</svg>
