<svg width="18" height="20" viewBox="0 0 18 20" fill="none" xmlns="http://www.w3.org/2000/svg">
<path d="M11.4993 6.66668H16.9493C16.6584 5.89575 16.2064 5.19574 15.6235 4.61336L12.7202 1.70836C12.1371 1.12614 11.4369 0.674456 10.666 0.383362V5.83336C10.666 6.29356 11.0391 6.66668 11.4993 6.66668Z" fill="white"/>
<path d="M17.3127 8.33332H11.4993C10.1186 8.33332 8.99934 7.21402 8.99934 5.83332V0.02C8.86516 0.0108203 8.73102 0 8.59516 0H4.83266C2.53262 0.00277344 0.66875 1.86664 0.666016 4.16668V15.8334C0.66875 18.1334 2.53262 19.9973 4.83266 20H13.166C15.466 19.9973 17.3299 18.1334 17.3327 15.8333V8.7375C17.3327 8.60168 17.3218 8.4675 17.3127 8.33332Z" fill="white"/>
</svg>
