<svg width="16" height="20" viewBox="0 0 16 20" fill="none" xmlns="http://www.w3.org/2000/svg">
<path d="M16 12.5V2.5C16 1.83696 15.719 1.20107 15.219 0.732233C14.7189 0.263392 14.0406 0 13.3333 0L9.77778 0V0.833333C9.77778 1.27536 9.59048 1.69928 9.25708 2.01184C8.92368 2.32441 8.4715 2.5 8 2.5C7.5285 2.5 7.07632 2.32441 6.74292 2.01184C6.40952 1.69928 6.22222 1.27536 6.22222 0.833333V0H2.66667C1.95942 0 1.28115 0.263392 0.781049 0.732233C0.280952 1.20107 0 1.83696 0 2.5V12.5H3.55556V14.1667H0V20H6.22222V19.1667C6.22222 18.7246 6.40952 18.3007 6.74292 17.9882C7.07632 17.6756 7.5285 17.5 8 17.5C8.4715 17.5 8.92368 17.6756 9.25708 17.9882C9.59048 18.3007 9.77778 18.7246 9.77778 19.1667V20H16V14.1667H12.4444V12.5H16ZM9.77778 14.1667H6.22222V12.5H9.77778V14.1667Z" fill="white"/>
</svg>
