<svg width="20" height="21" viewBox="0 0 20 21" fill="none" xmlns="http://www.w3.org/2000/svg">
<g clip-path="url(#clip0_1_3161)">
<path d="M2.67606 5.58451C2.67606 2.92799 4.83724 0.767609 7.49296 0.767609C10.1487 0.767609 12.3099 2.92799 12.3099 5.58451C12.3099 8.24103 10.1495 10.4014 7.49296 10.4014C4.83644 10.4014 2.67606 8.24103 2.67606 5.58451ZM19.5352 15.2183C19.5352 17.8788 17.3788 20.0352 14.7183 20.0352C12.0578 20.0352 9.90141 17.8788 9.90141 15.2183C9.90141 12.5578 12.0578 10.4014 14.7183 10.4014C17.3788 10.4014 19.5352 12.5578 19.5352 15.2183ZM17.6984 13.8519C17.3909 13.5316 16.8819 13.5228 16.5632 13.8286L14.3851 15.9352C14.2703 16.0484 14.0809 16.0508 13.9661 15.9368L12.8791 14.8683C12.5611 14.5568 12.0538 14.5624 11.7439 14.8795C11.4332 15.1966 11.438 15.704 11.7551 16.0147L12.8421 17.0841C13.2114 17.4445 13.6947 17.6252 14.1772 17.6252C14.6597 17.6252 15.1414 17.4445 15.5043 17.0865L17.6743 14.9879C17.9938 14.6804 18.0042 14.1722 17.6976 13.8527L17.6984 13.8519ZM8.29578 15.2183C8.29578 14.1201 8.57275 13.0868 9.05845 12.1829C8.55348 12.0705 8.03085 12.007 7.49296 12.007C3.5142 12.007 0.275638 15.2408 0.26761 19.2187C0.266807 19.6659 0.623258 20.0352 1.07043 20.0352H10.4802C9.14355 18.8583 8.29578 17.1395 8.29578 15.2183Z" fill="white"/>
</g>
<defs>
<clipPath id="clip0_1_3161">
<rect width="19.2676" height="19.2676" fill="white" transform="translate(0.267609 0.767609)"/>
</clipPath>
</defs>
</svg>
