<svg width="18" height="18" viewBox="0 0 18 18" fill="none" xmlns="http://www.w3.org/2000/svg">
<g clip-path="url(#clip0_297_346)">
<path d="M5.25 9H12.75V10.5H5.25V9ZM5.25 13.5H10.5V12H5.25V13.5ZM16.5 5.6895V18H1.5V2.25C1.5 1.65326 1.73705 1.08097 2.15901 0.65901C2.58097 0.237053 3.15326 0 3.75 0L10.8105 0L16.5 5.6895ZM11.25 5.25H13.9395L11.25 2.5605V5.25ZM15 16.5V6.75H9.75V1.5H3.75C3.55109 1.5 3.36032 1.57902 3.21967 1.71967C3.07902 1.86032 3 2.05109 3 2.25V16.5H15Z" fill="#1260F5" fill-opacity="0.8"/>
</g>
<defs>
<clipPath id="clip0_297_346">
<rect width="18" height="18" fill="white"/>
</clipPath>
</defs>
</svg>
