<svg width="3182" height="807" viewBox="0 0 3182 807" fill="none" xmlns="http://www.w3.org/2000/svg">
<g clip-path="url(#clip0_576_1233)">
<path fill-rule="evenodd" clip-rule="evenodd" d="M1055.69 0.00335693H1663.75L1556.54 139.216H1365.32V535.251H1199.71V139.216H948.482L1055.69 0.00335693Z" fill="white" style="fill:white;fill-opacity:1;"/>
<path fill-rule="evenodd" clip-rule="evenodd" d="M1918.93 213.621H2210.15C2340.56 213.621 2410.97 262.426 2410.97 360.034C2410.97 469.645 2344.56 535.251 2181.35 535.251H1682.9L1789.31 397.639H2194.15C2233.35 397.639 2250.96 386.438 2250.96 358.435C2250.96 331.232 2233.35 320.031 2194.15 320.031H1902.92C1765.31 320.031 1702.11 258.427 1702.11 166.419C1702.11 65.6095 1769.31 0.00335693 1931.73 0.00335693H2396.57L2290.16 139.216H1918.93C1880.52 139.216 1862.12 148.816 1862.12 176.018C1862.12 203.221 1880.52 213.621 1918.93 213.621Z" fill="white" style="fill:white;fill-opacity:1;"/>
<path fill-rule="evenodd" clip-rule="evenodd" d="M2689.35 213.621H2980.57C3110.98 213.621 3181.39 262.426 3181.39 360.034C3181.39 469.645 3114.99 535.251 2951.77 535.251H2453.33L2559.74 397.639H2964.57C3003.78 397.639 3021.38 386.438 3021.38 358.435C3021.38 331.232 3003.78 320.031 2964.57 320.031H2673.35C2535.73 320.031 2472.53 258.427 2472.53 166.419C2472.53 65.6095 2539.73 0.00335693 2702.15 0.00335693H3166.99L3060.58 139.216H2689.35C2650.94 139.216 2632.54 148.816 2632.54 176.018C2632.54 203.221 2650.94 213.621 2689.35 213.621Z" fill="white" style="fill:white;fill-opacity:1;"/>
<path fill-rule="evenodd" clip-rule="evenodd" d="M1063.77 747.719H969.621V803.309H948.48V672.358H1083.93L1070.04 690.366H969.621V730.885H1076.69L1063.77 747.719Z" fill="white" style="fill:white;fill-opacity:1;"/>
<path fill-rule="evenodd" clip-rule="evenodd" d="M1313.95 746.153V672.358H1335.29V746.153C1335.29 785.692 1309.84 805.461 1259.34 805.461C1200.81 805.461 1175.56 785.692 1175.56 746.153V672.358H1196.7V746.153C1196.7 775.514 1214.12 787.845 1259.34 787.845C1304.56 787.845 1313.95 775.514 1313.95 746.153Z" fill="white" style="fill:white;fill-opacity:1;"/>
<path fill-rule="evenodd" clip-rule="evenodd" d="M1552.97 803.309H1426.92V672.358H1565.89L1551.99 690.366H1448.06V729.711H1559.82L1547.69 745.37H1448.06V785.496H1566.87L1552.97 803.309Z" fill="white" style="fill:white;fill-opacity:1;"/>
<path fill-rule="evenodd" clip-rule="evenodd" d="M1774.96 805.463H1658.5V674.511H1679.64V787.649H1788.86L1774.96 805.463Z" fill="white" style="fill:white;fill-opacity:1;"/>
<path fill-rule="evenodd" clip-rule="evenodd" d="M2110.94 804.386H2042.04C1998.58 804.386 1966.68 775.611 1966.68 737.637C1966.68 699.272 1998.58 673.434 2042.04 673.434H2124.84L2110.94 691.443H2042.04C2016.4 691.443 1987.82 705.927 1987.82 738.617C1987.82 771.305 2016.59 786.573 2053.59 786.573H2124.84L2110.94 804.386Z" fill="white" style="fill:white;fill-opacity:1;"/>
<path fill-rule="evenodd" clip-rule="evenodd" d="M2412.9 804.386H2270.99L2283.91 786.573H2375.13L2314.84 695.749L2241.43 804.386H2216.38L2301.33 679.698C2304.07 675.589 2308.77 671.674 2315.23 671.674C2321.49 671.674 2326.19 675.197 2329.13 679.698L2412.9 804.386Z" fill="white" style="fill:white;fill-opacity:1;"/>
<path fill-rule="evenodd" clip-rule="evenodd" d="M2676.7 804.386H2647.93L2601.15 761.126H2525.98V804.386H2504.84V744.098H2598.6C2623.07 744.098 2645.19 737.051 2645.19 718.26C2645.19 697.511 2625.81 691.443 2598.6 691.443H2504.45L2518.35 673.434H2606.43C2636.97 673.434 2666.91 685.179 2666.91 717.085C2666.91 740.574 2649.69 754.863 2623.07 757.211L2676.7 804.386Z" fill="white" style="fill:white;fill-opacity:1;"/>
<path fill-rule="evenodd" clip-rule="evenodd" d="M2849.67 804.386H2768.24V722.761H2789.38V786.573H2849.67C2879.62 786.573 2901.93 766.412 2901.93 738.617C2901.93 711.017 2879.43 691.443 2849.67 691.443H2768.24L2781.94 673.434H2849.67C2892.15 673.434 2922.88 699.86 2922.88 737.637C2922.88 775.611 2891.76 804.386 2849.67 804.386Z" fill="white" style="fill:white;fill-opacity:1;"/>
<path fill-rule="evenodd" clip-rule="evenodd" d="M3129.52 806.539H3014.42L3028.32 788.726H3131.09C3151.25 788.726 3161.04 781.679 3161.04 767.977C3161.04 750.752 3146.74 748.6 3122.27 748.6H3069.43C3036.35 748.6 3020.88 735.876 3020.88 712.975C3020.88 689.095 3036.93 675.588 3072.95 675.588H3178.84L3165.15 693.596H3071.38C3051.42 693.596 3041.43 700.643 3041.43 714.344C3041.43 730.983 3055.33 732.941 3080.19 732.941H3133.05C3164.96 732.941 3181.39 744.488 3181.39 768.174C3181.39 793.229 3165.54 806.539 3129.52 806.539Z" fill="white" style="fill:white;fill-opacity:1;"/>
<path fill-rule="evenodd" clip-rule="evenodd" d="M517.187 306.725V499.819C517.187 509.624 509.225 517.586 499.42 517.586H306.329C296.524 517.586 288.562 509.624 288.562 499.819V306.725C288.562 296.92 296.524 288.958 306.329 288.958H499.42C509.225 288.958 517.187 296.92 517.187 306.725Z" fill="white" style="fill:white;fill-opacity:1;"/>
<path fill-rule="evenodd" clip-rule="evenodd" d="M228.624 306.725V499.819C228.624 509.624 220.663 517.586 210.858 517.586H17.7666C7.96145 517.586 0 509.624 0 499.819V306.725C0 296.92 7.96145 288.958 17.7666 288.958H210.858C220.663 288.958 228.624 296.92 228.624 306.725Z" fill="white" style="fill:white;fill-opacity:1;"/>
<path fill-rule="evenodd" clip-rule="evenodd" d="M805.423 306.725V499.819C805.423 509.624 797.462 517.586 787.657 517.586H594.565C584.76 517.586 576.799 509.624 576.799 499.819V306.725C576.799 296.92 584.76 288.958 594.565 288.958H787.657C797.462 288.958 805.423 296.92 805.423 306.725Z" fill="white" style="fill:white;fill-opacity:1;"/>
<path fill-rule="evenodd" clip-rule="evenodd" d="M517.187 595.682V788.776C517.187 798.581 509.225 806.543 499.42 806.543H306.329C296.524 806.543 288.562 798.581 288.562 788.776V595.682C288.562 585.877 296.524 577.915 306.329 577.915H499.42C509.225 577.915 517.187 585.877 517.187 595.682Z" fill="white" style="fill:white;fill-opacity:1;"/>
<path fill-rule="evenodd" clip-rule="evenodd" d="M228.624 595.682V788.776C228.624 798.581 220.663 806.543 210.858 806.543H17.7666C7.96145 806.543 0 798.581 0 788.776V595.682C0 585.877 7.96145 577.915 17.7666 577.915H210.858C220.663 577.915 228.624 585.877 228.624 595.682Z" fill="white" style="fill:white;fill-opacity:1;"/>
<path fill-rule="evenodd" clip-rule="evenodd" d="M805.423 595.682V788.776C805.423 798.581 797.462 806.543 787.657 806.543H594.565C584.76 806.543 576.799 798.581 576.799 788.776V595.682C576.799 585.877 584.76 577.915 594.565 577.915H787.657C797.462 577.915 805.423 585.877 805.423 595.682Z" fill="white" style="fill:white;fill-opacity:1;"/>
<path fill-rule="evenodd" clip-rule="evenodd" d="M517.187 17.7668V210.86C517.187 220.666 509.225 228.627 499.42 228.627H306.329C296.524 228.627 288.562 220.666 288.562 210.86V17.7668C288.562 7.96139 296.524 -6.10352e-05 306.329 -6.10352e-05H499.42C509.225 -6.10352e-05 517.187 7.96139 517.187 17.7668Z" fill="white" style="fill:white;fill-opacity:1;"/>
<path fill-rule="evenodd" clip-rule="evenodd" d="M805.423 17.7668V210.86C805.423 220.666 797.462 228.627 787.657 228.627H594.565C584.76 228.627 576.799 220.666 576.799 210.86V17.7668C576.799 7.96139 584.76 -6.10352e-05 594.565 -6.10352e-05H787.657C797.462 -6.10352e-05 805.423 7.96139 805.423 17.7668Z" fill="white" style="fill:white;fill-opacity:1;"/>
<path fill-rule="evenodd" clip-rule="evenodd" d="M228.624 17.7669V210.86C228.624 220.666 220.663 228.627 210.858 228.627H17.7666C7.96145 228.627 0 220.666 0 210.86V17.7669C0 7.96146 7.96145 0 17.7666 0H210.858C220.663 0 228.624 7.96146 228.624 17.7669Z" fill="white" style="fill:white;fill-opacity:1;"/>
</g>
<defs>
<clipPath id="clip0_576_1233">
<rect width="3181.39" height="806.543" fill="white" style="fill:white;fill-opacity:1;"/>
</clipPath>
</defs>
</svg>
