<svg width="3182" height="808" viewBox="0 0 3182 808" fill="none" xmlns="http://www.w3.org/2000/svg">
<path fill-rule="evenodd" clip-rule="evenodd" d="M1056.28 0.547333H1664.34L1557.13 139.76H1365.91V535.795H1200.3V139.76H949.072L1056.28 0.547333Z" fill="#101010"/>
<path fill-rule="evenodd" clip-rule="evenodd" d="M1919.52 214.165H2210.74C2341.15 214.165 2411.56 262.97 2411.56 360.578C2411.56 470.189 2345.15 535.795 2181.94 535.795H1683.49L1789.9 398.183H2194.74C2233.94 398.183 2251.55 386.982 2251.55 358.979C2251.55 331.776 2233.94 320.575 2194.74 320.575H1903.51C1765.9 320.575 1702.7 258.971 1702.7 166.963C1702.7 66.1535 1769.9 0.547333 1932.32 0.547333H2397.16L2290.75 139.76H1919.52C1881.11 139.76 1862.71 149.36 1862.71 176.562C1862.71 203.765 1881.11 214.165 1919.52 214.165Z" fill="#101010"/>
<path fill-rule="evenodd" clip-rule="evenodd" d="M2689.94 214.165H2981.16C3111.57 214.165 3181.98 262.97 3181.98 360.578C3181.98 470.189 3115.58 535.795 2952.36 535.795H2453.92L2560.33 398.183H2965.16C3004.37 398.183 3021.97 386.982 3021.97 358.979C3021.97 331.776 3004.37 320.575 2965.16 320.575H2673.94C2536.32 320.575 2473.12 258.971 2473.12 166.963C2473.12 66.1535 2540.32 0.547333 2702.74 0.547333H3167.58L3061.17 139.76H2689.94C2651.53 139.76 2633.13 149.36 2633.13 176.562C2633.13 203.765 2651.53 214.165 2689.94 214.165Z" fill="#101010"/>
<path fill-rule="evenodd" clip-rule="evenodd" d="M1064.36 748.263H970.21V803.853H949.07V672.902H1084.52L1070.63 690.91H970.21V731.429H1077.28L1064.36 748.263Z" fill="#101010"/>
<path fill-rule="evenodd" clip-rule="evenodd" d="M1314.54 746.697V672.902H1335.88V746.697C1335.88 786.236 1310.43 806.005 1259.93 806.005C1201.4 806.005 1176.15 786.236 1176.15 746.697V672.902H1197.29V746.697C1197.29 776.058 1214.71 788.389 1259.93 788.389C1305.15 788.389 1314.54 776.058 1314.54 746.697Z" fill="#101010"/>
<path fill-rule="evenodd" clip-rule="evenodd" d="M1553.56 803.853H1427.51V672.902H1566.48L1552.58 690.91H1448.65V730.255H1560.41L1548.28 745.914H1448.65V786.04H1567.46L1553.56 803.853Z" fill="#101010"/>
<path fill-rule="evenodd" clip-rule="evenodd" d="M1775.55 806.006H1659.09V675.055H1680.23V788.193H1789.45L1775.55 806.006Z" fill="#101010"/>
<path fill-rule="evenodd" clip-rule="evenodd" d="M2111.53 804.93H2042.63C1999.17 804.93 1967.27 776.155 1967.27 738.181C1967.27 699.816 1999.17 673.978 2042.63 673.978H2125.43L2111.53 691.987H2042.63C2016.99 691.987 1988.41 706.471 1988.41 739.161C1988.41 771.849 2017.18 787.116 2054.18 787.116H2125.43L2111.53 804.93Z" fill="#101010"/>
<path fill-rule="evenodd" clip-rule="evenodd" d="M2413.49 804.93H2271.58L2284.5 787.117H2375.72L2315.43 696.293L2242.02 804.93H2216.97L2301.92 680.242C2304.66 676.132 2309.36 672.218 2315.82 672.218C2322.08 672.218 2326.78 675.741 2329.72 680.242L2413.49 804.93Z" fill="#101010"/>
<path fill-rule="evenodd" clip-rule="evenodd" d="M2677.29 804.93H2648.52L2601.74 761.67H2526.57V804.93H2505.43V744.642H2599.19C2623.66 744.642 2645.78 737.595 2645.78 718.804C2645.78 698.055 2626.4 691.987 2599.19 691.987H2505.04L2518.94 673.978H2607.02C2637.56 673.978 2667.5 685.723 2667.5 717.629C2667.5 741.118 2650.28 755.407 2623.66 757.755L2677.29 804.93Z" fill="#101010"/>
<path fill-rule="evenodd" clip-rule="evenodd" d="M2850.26 804.93H2768.83V723.305H2789.97V787.116H2850.26C2880.21 787.116 2902.52 766.956 2902.52 739.161C2902.52 711.561 2880.02 691.986 2850.26 691.986H2768.83L2782.53 673.978H2850.26C2892.74 673.978 2923.47 700.404 2923.47 738.181C2923.47 776.155 2892.35 804.93 2850.26 804.93Z" fill="#101010"/>
<path fill-rule="evenodd" clip-rule="evenodd" d="M3130.11 807.083H3015.01L3028.91 789.27H3131.68C3151.84 789.27 3161.63 782.223 3161.63 768.521C3161.63 751.296 3147.33 749.144 3122.86 749.144H3070.02C3036.94 749.144 3021.47 736.42 3021.47 713.519C3021.47 689.639 3037.52 676.132 3073.54 676.132H3179.43L3165.74 694.14H3071.97C3052.01 694.14 3042.02 701.186 3042.02 714.888C3042.02 731.527 3055.92 733.485 3080.78 733.485H3133.64C3165.55 733.485 3181.98 745.032 3181.98 768.718C3181.98 793.773 3166.13 807.083 3130.11 807.083Z" fill="#101010"/>
<path fill-rule="evenodd" clip-rule="evenodd" d="M517.777 307.269V500.363C517.777 510.168 509.815 518.13 500.01 518.13H306.919C297.114 518.13 289.152 510.168 289.152 500.363V307.269C289.152 297.464 297.114 289.502 306.919 289.502H500.01C509.815 289.502 517.777 297.464 517.777 307.269Z" fill="#007DC2"/>
<path fill-rule="evenodd" clip-rule="evenodd" d="M229.214 307.269V500.363C229.214 510.168 221.253 518.13 211.448 518.13H18.3565C8.55129 518.13 0.589844 510.168 0.589844 500.363V307.269C0.589844 297.464 8.55129 289.502 18.3565 289.502H211.448C221.253 289.502 229.214 297.464 229.214 307.269Z" fill="#FF5800"/>
<path fill-rule="evenodd" clip-rule="evenodd" d="M806.013 307.269V500.363C806.013 510.168 798.052 518.13 788.246 518.13H595.155C585.35 518.13 577.389 510.168 577.389 500.363V307.269C577.389 297.464 585.35 289.502 595.155 289.502H788.246C798.052 289.502 806.013 297.464 806.013 307.269Z" fill="#AED100"/>
<path fill-rule="evenodd" clip-rule="evenodd" d="M517.777 596.226V789.32C517.777 799.125 509.815 807.087 500.01 807.087H306.919C297.114 807.087 289.152 799.125 289.152 789.32V596.226C289.152 586.421 297.114 578.459 306.919 578.459H500.01C509.815 578.459 517.777 586.421 517.777 596.226Z" fill="#C2C8C7"/>
<path fill-rule="evenodd" clip-rule="evenodd" d="M229.214 596.226V789.32C229.214 799.125 221.253 807.087 211.448 807.087H18.3565C8.55129 807.087 0.589844 799.125 0.589844 789.32V596.226C0.589844 586.421 8.55129 578.459 18.3565 578.459H211.448C221.253 578.459 229.214 586.421 229.214 596.226Z" fill="#FFC800"/>
<path fill-rule="evenodd" clip-rule="evenodd" d="M806.013 596.226V789.32C806.013 799.125 798.052 807.087 788.246 807.087H595.155C585.35 807.087 577.389 799.125 577.389 789.32V596.226C577.389 586.421 585.35 578.459 595.155 578.459H788.246C798.052 578.459 806.013 586.421 806.013 596.226Z" fill="#71B6E3"/>
<path fill-rule="evenodd" clip-rule="evenodd" d="M517.777 18.3108V211.404C517.777 221.21 509.815 229.171 500.01 229.171H306.919C297.114 229.171 289.152 221.21 289.152 211.404V18.3108C289.152 8.50534 297.114 0.543884 306.919 0.543884H500.01C509.815 0.543884 517.777 8.50534 517.777 18.3108Z" fill="#45D5F6"/>
<path fill-rule="evenodd" clip-rule="evenodd" d="M806.013 18.3108V211.404C806.013 221.21 798.052 229.171 788.246 229.171H595.155C585.35 229.171 577.389 221.21 577.389 211.404V18.3108C577.389 8.50534 585.35 0.543884 595.155 0.543884H788.246C798.052 0.543884 806.013 8.50534 806.013 18.3108Z" fill="#00AD3F"/>
<path fill-rule="evenodd" clip-rule="evenodd" d="M229.214 18.3108V211.404C229.214 221.21 221.253 229.171 211.448 229.171H18.3565C8.55129 229.171 0.589844 221.21 0.589844 211.404V18.3108C0.589844 8.5054 8.55129 0.543945 18.3565 0.543945H211.448C221.253 0.543945 229.214 8.5054 229.214 18.3108Z" fill="#00326F"/>
</svg>
