<svg width="44" height="44" viewBox="0 0 44 44" fill="none" xmlns="http://www.w3.org/2000/svg">
<path d="M0 22C0 26.3512 1.29028 30.6047 3.70767 34.2225C6.12506 37.8404 9.56099 40.6602 13.581 42.3254C17.6009 43.9905 22.0244 44.4262 26.292 43.5773C30.5596 42.7284 34.4796 40.6331 37.5564 37.5564C40.6331 34.4796 42.7284 30.5596 43.5773 26.292C44.4262 22.0244 43.9905 17.6009 42.3254 13.581C40.6602 9.56099 37.8404 6.12506 34.2225 3.70767C30.6047 1.29028 26.3512 0 22 0C16.1672 0.00630865 10.5751 2.32619 6.45062 6.45062C2.32619 10.5751 0.00630865 16.1672 0 22ZM31.9257 19.4077C32.6131 20.0953 32.9992 21.0277 32.9992 22C32.9992 22.9723 32.6131 23.9047 31.9257 24.5923L24.1468 32.3712L21.5545 29.7788L27.5 23.8333H11V20.1667H27.5L21.5545 14.2212L24.1468 11.6288L31.9257 19.4077Z" fill="white" fill-opacity="0.6"/>
</svg>
