<svg width="44" height="44" viewBox="0 0 44 44" fill="none" xmlns="http://www.w3.org/2000/svg">
<g clip-path="url(#clip0_1_6606)">
<path d="M44 22C44 17.6488 42.7097 13.3953 40.2923 9.77745C37.8749 6.15957 34.439 3.33977 30.419 1.67465C26.3991 0.00951995 21.9756 -0.426157 17.708 0.42272C13.4404 1.27159 9.52041 3.36689 6.44365 6.44365C3.3669 9.5204 1.2716 13.4404 0.422724 17.708C-0.426153 21.9756 0.00952302 26.3991 1.67465 30.419C3.33978 34.439 6.15957 37.8749 9.77745 40.2923C13.3953 42.7097 17.6488 44 22 44C27.8328 43.9937 33.4249 41.6738 37.5494 37.5494C41.6738 33.4249 43.9937 27.8328 44 22ZM12.0743 24.5923C11.3869 23.9047 11.0008 22.9723 11.0008 22C11.0008 21.0277 11.3869 20.0953 12.0743 19.4077L19.8532 11.6288L22.4455 14.2212L16.5 20.1667L33 20.1667L33 23.8333L16.5 23.8333L22.4455 29.7788L19.8532 32.3712L12.0743 24.5923Z" fill="white" fill-opacity="0.6"/>
</g>
<defs>
<clipPath id="clip0_1_6606">
<rect width="44" height="44" fill="white" transform="translate(44 44) rotate(-180)"/>
</clipPath>
</defs>
</svg>
