<svg width="15" height="16" viewBox="0 0 15 16" fill="none" xmlns="http://www.w3.org/2000/svg">
<path d="M13.75 2.375L13.75 13.625C13.75 13.7908 13.6842 13.9497 13.5669 14.0669C13.4497 14.1842 13.2908 14.25 13.125 14.25L10 14.25L10 15.5L13.125 15.5C13.6223 15.5 14.0992 15.3025 14.4508 14.9508C14.8025 14.5992 15 14.1223 15 13.625L15 2.375C15 1.87772 14.8025 1.40081 14.4508 1.04917C14.0992 0.697544 13.6223 0.5 13.125 0.5L10 0.5L10 1.75L13.125 1.75C13.2908 1.75 13.4497 1.81585 13.5669 1.93306C13.6842 2.05027 13.75 2.20924 13.75 2.375Z" fill="#EF6630"/>
<path d="M0.548126 9.32564L3.41437 12.1919L4.29813 11.3081L1.63313 8.64314L11.875 8.62502L11.875 7.37502L1.59812 7.39314L4.29938 4.69189L3.41563 3.80814L0.549375 6.67439C0.197701 7.02584 1.07061e-05 7.50258 -0.000223747 7.99976C-0.0004582 8.49694 0.196783 8.97386 0.548126 9.32564Z" fill="#EF6630"/>
</svg>
