<svg width="28" height="27" viewBox="0 0 28 27" fill="none" xmlns="http://www.w3.org/2000/svg">
<path d="M13.7964 0.170898C6.48376 0.170898 0.555664 6.00238 0.555664 13.1959C0.555664 20.3894 6.48376 26.2209 13.7964 26.2209C21.1091 26.2209 27.0372 20.3894 27.0372 13.1959C27.0372 6.00238 21.1091 0.170898 13.7964 0.170898ZM20.6785 8.41002L18.3268 19.454C18.2984 19.5876 18.2362 19.712 18.1462 19.8158C18.0561 19.9196 17.9409 19.9994 17.8113 20.048C17.6816 20.0966 17.5416 20.1124 17.4042 20.0939C17.2667 20.0753 17.1362 20.0232 17.0246 19.9421L13.6039 17.4561L11.5315 19.3793C11.5044 19.4045 11.4725 19.4241 11.4376 19.437C11.4026 19.4499 11.3655 19.4558 11.3282 19.4544C11.2909 19.453 11.2543 19.4443 11.2205 19.4289C11.1867 19.4134 11.1563 19.3915 11.1312 19.3643L11.0867 19.3162L11.4468 15.8882L17.937 10.0549C17.9691 10.0261 17.9891 9.98654 17.993 9.94398C17.9969 9.90141 17.9844 9.85896 17.958 9.825C17.9316 9.79104 17.8933 9.76803 17.8505 9.76052C17.8078 9.753 17.7637 9.76153 17.727 9.78441L9.42673 14.9522L5.85198 13.7712C5.75693 13.7398 5.67408 13.6802 5.61482 13.6006C5.55555 13.5211 5.52276 13.4254 5.52094 13.3268C5.51913 13.2282 5.54838 13.1314 5.60469 13.0498C5.66099 12.9682 5.74159 12.9057 5.83543 12.8709L19.822 7.68794C19.9299 7.64801 20.0467 7.63731 20.1603 7.65698C20.2738 7.67665 20.3799 7.72596 20.4674 7.79975C20.5549 7.87355 20.6207 7.96912 20.6578 8.07647C20.695 8.18383 20.7021 8.29902 20.6785 8.41002Z" fill="white"/>
</svg>
