<svg width="28" height="27" viewBox="0 0 28 27" fill="none" xmlns="http://www.w3.org/2000/svg">
<path fill-rule="evenodd" clip-rule="evenodd" d="M13.8057 0.170898C21.2565 0.170898 27.3057 6.12147 27.3057 13.4509C27.3057 20.7803 21.2565 26.7309 13.8057 26.7309C6.35482 26.7309 0.305664 20.7803 0.305664 13.4509C0.305664 6.12147 6.35482 0.170898 13.8057 0.170898ZM13.8057 5.15089C11.5142 5.15089 11.2268 5.16044 10.3269 5.20085C9.42882 5.24115 8.81546 5.38148 8.27873 5.58664C7.72391 5.79876 7.25337 6.08257 6.78429 6.54399C6.31522 7.00542 6.02671 7.4683 5.81108 8.01408C5.60252 8.54201 5.45992 9.14536 5.41889 10.0288C5.37787 10.9141 5.36816 11.1968 5.36816 13.4509C5.36816 15.705 5.37787 15.9877 5.41889 16.873C5.45992 17.7564 5.60252 18.3598 5.81108 18.8877C6.02671 19.4335 6.31522 19.8963 6.78429 20.3578C7.25337 20.8192 7.72391 21.1031 8.27873 21.3152C8.81546 21.5203 9.42882 21.6606 10.3269 21.7009C11.2268 21.7413 11.5142 21.7509 13.8057 21.7509C16.0971 21.7509 16.3845 21.7413 17.2844 21.7009C18.1825 21.6606 18.7959 21.5203 19.3325 21.3152C19.8874 21.1031 20.3579 20.8192 20.827 20.3578C21.2961 19.8963 21.5846 19.4335 21.8002 18.8877C22.0088 18.3598 22.1514 17.7564 22.1924 16.873C22.2335 15.9877 22.2432 15.705 22.2432 13.4509C22.2432 11.1968 22.2335 10.9141 22.1924 10.0288C22.1514 9.14536 22.0088 8.54201 21.8002 8.01408C21.5846 7.4683 21.2961 7.00542 20.827 6.54399C20.3579 6.08257 19.8874 5.79876 19.3325 5.58664C18.7959 5.38148 18.1825 5.24115 17.2844 5.20085C16.3845 5.16044 16.0971 5.15089 13.8057 5.15089ZM13.8057 6.64639C16.0586 6.64639 16.3254 6.65485 17.2152 6.69479C18.0378 6.73173 18.4845 6.86691 18.7818 6.98057C19.1757 7.13111 19.4568 7.31102 19.752 7.60146C20.0473 7.89186 20.2301 8.1684 20.3832 8.55581C20.4987 8.84828 20.6362 9.28771 20.6737 10.097C20.7143 10.9722 20.7229 11.2347 20.7229 13.4509C20.7229 15.6671 20.7143 15.9296 20.6737 16.8048C20.6362 17.614 20.4987 18.0535 20.3832 18.346C20.2301 18.7334 20.0473 19.0099 19.752 19.3003C19.4568 19.5908 19.1757 19.7706 18.7818 19.9212C18.4845 20.0348 18.0378 20.1701 17.2152 20.207C16.3256 20.2469 16.0587 20.2554 13.8057 20.2554C11.5526 20.2554 11.2858 20.2469 10.3962 20.207C9.57352 20.1701 9.12681 20.0348 8.82949 19.9212C8.43562 19.7706 8.15454 19.5908 7.85928 19.3003C7.56402 19.0099 7.38119 18.7334 7.22816 18.346C7.11262 18.0535 6.97514 17.614 6.93759 16.8048C6.89699 15.9296 6.88844 15.6671 6.88844 13.4509C6.88844 11.2347 6.89699 10.9722 6.93759 10.097C6.97514 9.28771 7.11262 8.84828 7.22816 8.55581C7.38119 8.1684 7.56402 7.89186 7.85928 7.60146C8.15454 7.31102 8.43562 7.13111 8.82949 6.98057C9.12681 6.86691 9.57352 6.73173 10.3962 6.69479C11.2859 6.65485 11.5527 6.64639 13.8057 6.64639ZM13.8057 9.18873C11.4127 9.18873 9.4729 11.097 9.4729 13.4509C9.4729 15.8048 11.4127 17.713 13.8057 17.713C16.1986 17.713 18.1384 15.8048 18.1384 13.4509C18.1384 11.097 16.1986 9.18873 13.8057 9.18873ZM13.8057 16.2175C12.2524 16.2175 10.9932 14.9789 10.9932 13.4509C10.9932 11.9229 12.2524 10.6842 13.8057 10.6842C15.359 10.6842 16.6181 11.9229 16.6181 13.4509C16.6181 14.9789 15.359 16.2175 13.8057 16.2175ZM19.3222 9.02035C19.3222 9.57043 18.8688 10.0163 18.3096 10.0163C17.7505 10.0163 17.2972 9.57043 17.2972 9.02035C17.2972 8.47026 17.7505 8.02435 18.3096 8.02435C18.8688 8.02435 19.3222 8.47026 19.3222 9.02035Z" fill="white"/>
</svg>
