<svg width="24" height="24" viewBox="0 0 24 24" fill="none" xmlns="http://www.w3.org/2000/svg">
<path d="M24 18C24 18.7957 23.6839 19.5587 23.1213 20.1213C22.5587 20.6839 21.7957 21 21 21C20.2044 21 19.4413 20.6839 18.8787 20.1213C18.3161 19.5587 18 18.7957 18 18V17C18 16.7348 17.8946 16.4804 17.7071 16.2929C17.5196 16.1054 17.2652 16 17 16H16V19C15.9984 20.3256 15.4711 21.5964 14.5338 22.5338C13.5964 23.4711 12.3256 23.9984 11 24H5C3.67441 23.9984 2.40356 23.4711 1.46622 22.5338C0.528882 21.5964 0.00158786 20.3256 0 19L0 11H16V14H17C17.7957 14 18.5587 14.3161 19.1213 14.8787C19.6839 15.4413 20 16.2044 20 17V18C20 18.2652 20.1054 18.5196 20.2929 18.7071C20.4804 18.8946 20.7348 19 21 19C21.2652 19 21.5196 18.8946 21.7071 18.7071C21.8946 18.5196 22 18.2652 22 18V8C21.4696 8 20.9609 7.78929 20.5858 7.41421C20.2107 7.03914 20 6.53043 20 6V3.414L18.293 1.707C18.1108 1.5184 18.01 1.2658 18.0123 1.0036C18.0146 0.741402 18.1198 0.49059 18.3052 0.305181C18.4906 0.119773 18.7414 0.0146044 19.0036 0.012326C19.2658 0.0100475 19.5184 0.110842 19.707 0.293L22.243 2.828C23.3489 3.92787 23.9797 5.4174 24 6.977C24 6.985 24 18 24 18ZM16 5C15.9984 3.67441 15.4711 2.40356 14.5338 1.46622C13.5964 0.528882 12.3256 0.00158786 11 0L5 0C3.67441 0.00158786 2.40356 0.528882 1.46622 1.46622C0.528882 2.40356 0.00158786 3.67441 0 5L0 9H16V5Z" fill="url(#paint0_linear_1_6521)"/>
<defs>
<linearGradient id="paint0_linear_1_6521" x1="12" y1="0" x2="12" y2="24" gradientUnits="userSpaceOnUse">
<stop stop-color="white"/>
<stop offset="1" stop-color="#8E1636"/>
</linearGradient>
</defs>
</svg>
