<svg width="29" height="26" viewBox="0 0 29 26" fill="none" xmlns="http://www.w3.org/2000/svg">
<path d="M14.5677 11.5467L24.2815 19.6643L17.4012 24.8251C15.683 26.1144 13.3195 26.1144 11.6012 24.8251L4.1905 19.2668C3.56338 18.7967 2.79971 18.5418 2.0155 18.5418H1.20954C0.541333 18.5418 0 18.0004 0 17.3334V3.96565C0 3.35182 0.457958 2.84069 1.06817 2.77182C2.70788 2.58936 4.18446 1.93082 5.69487 1.05115C7.86746 -0.0665572 10.7179 0.332193 12.4809 1.98398L13.2264 2.70053L8.38463 7.42632C7.08808 8.72165 6.88146 10.7698 7.90371 12.1847C8.53204 13.0584 9.66908 13.706 10.8569 13.706C11.8151 13.706 12.7346 13.329 13.3992 12.6632L14.5677 11.5455V11.5467ZM24.1111 1.05115C22.069 0.0301094 19.5218 0.295943 17.6973 1.71332L10.0811 9.14699C9.63283 9.59649 9.53133 10.3154 9.86242 10.7746C10.0799 11.0767 10.3953 11.2579 10.7554 11.2882C11.1118 11.3184 11.4574 11.1891 11.7075 10.9377L16.0793 6.79436C17.226 5.70565 18.8875 7.44323 17.7504 8.5404L16.3234 9.86594L26.7066 18.543H27.7905C28.4575 18.543 28.9988 18.0017 28.9988 17.3347V3.92457C28.9988 3.33248 28.5662 2.84311 27.9826 2.73798C25.9357 2.36823 24.1099 1.05236 24.1099 1.05236L24.1111 1.05115Z" fill="#8E1636"/>
</svg>
